<?xml version="1.0" standalone="no"?>
<!DOCTYPE svg PUBLIC "-//W3C//DTD SVG 20010904//EN"
 "http://www.w3.org/TR/2001/REC-SVG-20010904/DTD/svg10.dtd">
<svg version="1.0" xmlns="http://www.w3.org/2000/svg"
 width="1024.000000pt" height="1024.000000pt" viewBox="0 0 1024.000000 1024.000000"
 preserveAspectRatio="xMidYMid meet">
<metadata>
Created by potrace 1.11, written by Peter Selinger 2001-2013
</metadata>
<g transform="translate(0.000000,1024.000000) scale(0.100000,-0.100000)"
fill="#000000" stroke="none">
<path d="M2316 6988 c-9 -12 -16 -30 -16 -40 0 -9 -8 -23 -17 -30 -12 -9 -18
-26 -18 -53 0 -22 -8 -69 -18 -105 -19 -71 -65 -267 -73 -315 -2 -16 -7 -41
-10 -55 -3 -14 -8 -36 -11 -50 -3 -14 -6 -29 -7 -35 -4 -15 -16 -76 -20 -105
-3 -14 -5 -25 -6 -25 -1 0 -3 -11 -5 -25 -3 -27 -10 -67 -19 -115 -6 -28 -12
-67 -22 -125 -3 -14 -9 -47 -14 -75 -6 -27 -12 -63 -14 -80 -9 -59 -18 -112
-42 -230 -14 -66 -27 -136 -30 -155 -3 -19 -8 -38 -10 -41 -3 -6 -14 -57 -19
-94 -2 -11 -4 -20 -5 -20 -1 0 -3 -7 -5 -15 -9 -42 -27 -113 -46 -180 -11 -41
-22 -82 -24 -90 -2 -8 -4 -15 -5 -15 -1 0 -3 -7 -5 -15 -1 -8 -15 -51 -30 -95
-15 -44 -28 -84 -29 -90 -2 -5 -8 -23 -15 -40 -6 -16 -17 -43 -23 -60 -7 -16
-18 -41 -25 -54 -6 -14 -10 -28 -7 -33 3 -4 0 -8 -5 -8 -6 0 -11 -6 -11 -14 0
-7 -18 -53 -41 -102 -22 -49 -47 -105 -56 -124 -47 -107 -166 -325 -205 -375
-59 -76 -158 -195 -182 -219 -83 -82 -151 -136 -170 -136 -22 0 -76 40 -76 57
0 21 -70 187 -87 205 -49 55 -142 90 -174 65 -39 -30 -50 -72 -49 -187 0 -99
3 -125 25 -255 17 -104 35 -147 82 -197 94 -100 324 -85 473 30 46 36 153 142
143 142 -3 0 9 15 27 33 17 17 39 44 48 60 9 15 20 27 24 27 4 0 8 4 8 8 0 5
33 59 74 120 41 62 78 121 81 132 4 11 10 20 14 20 4 0 13 16 21 35 8 19 18
35 22 35 5 0 7 4 3 9 -3 5 -1 12 5 16 22 13 192 377 273 585 67 170 135 408
153 533 3 26 8 46 10 44 2 -1 6 -68 9 -148 6 -152 9 -193 20 -274 4 -27 8 -66
10 -85 1 -19 3 -35 5 -35 2 0 6 -19 14 -70 4 -22 14 -65 22 -95 9 -30 17 -59
18 -65 1 -5 5 -16 9 -22 5 -7 6 -13 3 -13 -8 0 35 -113 75 -196 76 -161 210
-329 332 -419 34 -25 67 -48 72 -53 30 -22 137 -81 186 -101 l56 -23 69 43
c93 59 186 132 259 204 98 98 119 125 213 270 7 11 28 54 48 95 19 41 42 89
51 105 10 17 16 31 15 32 -2 3 0 10 16 58 10 29 10 29 12 5 1 -14 3 -34 5 -45
2 -11 7 -42 10 -70 3 -27 8 -57 10 -65 2 -8 6 -35 9 -60 3 -25 9 -56 12 -70 3
-14 8 -38 10 -55 15 -83 78 -315 119 -434 65 -187 130 -318 167 -337 45 -23
83 -4 94 47 5 27 6 183 0 242 -3 36 -2 38 20 33 31 -8 32 17 3 82 -12 26 -24
56 -29 67 -4 11 -12 31 -18 45 -30 68 -104 277 -108 305 0 6 -4 17 -7 25 -7
18 -44 164 -58 229 -10 50 -16 86 -24 141 -3 19 -7 47 -10 62 -18 92 -25 539
-11 683 4 44 10 105 12 135 6 64 11 103 14 110 1 3 2 8 1 12 0 3 8 60 19 125
26 157 27 161 45 253 5 21 11 60 19 120 2 13 8 45 21 120 1 8 8 47 14 85 17
109 19 120 21 120 1 0 3 11 5 25 7 53 15 102 35 211 12 63 23 123 24 134 1 12
5 26 9 32 4 6 -12 48 -34 94 -23 46 -42 95 -44 108 -4 40 -83 94 -86 59 -1 -7
-2 -17 -3 -23 -2 -18 -60 -190 -66 -195 -3 -3 -7 -14 -8 -25 -2 -11 -15 -55
-28 -97 -14 -43 -25 -81 -25 -85 -1 -5 -5 -15 -9 -23 -9 -18 -56 -227 -64
-285 -3 -22 -8 -65 -11 -95 -3 -30 -8 -73 -11 -95 -4 -22 -8 -51 -9 -65 -3
-29 -13 -95 -20 -130 -3 -13 -7 -42 -10 -65 -3 -22 -8 -47 -10 -55 -6 -24 -17
-120 -21 -190 -10 -185 -14 -225 -30 -304 -2 -11 -9 -48 -15 -81 -5 -33 -12
-69 -14 -80 -2 -11 -8 -39 -13 -62 -5 -24 -8 -43 -5 -43 3 0 0 -7 -7 -15 -7
-8 -10 -15 -7 -15 3 0 1 -17 -4 -37 -5 -21 -12 -49 -15 -63 -11 -54 -68 -231
-106 -330 -97 -249 -231 -461 -397 -623 l-70 -69 -33 24 c-109 76 -236 209
-284 298 -10 19 -22 37 -25 40 -9 8 -88 195 -92 216 -1 10 -5 24 -9 29 -5 9
-34 151 -52 254 -32 182 -22 690 20 1071 2 25 7 74 9 110 2 36 7 99 10 140 3
41 8 116 10 165 2 50 4 90 5 90 1 0 3 17 4 38 0 20 -2 37 -6 37 -4 0 -5 6 -2
14 9 23 11 116 2 116 -4 0 -3 11 2 24 5 13 7 26 4 28 -3 4 -15 138 -15 188 0
8 -5 38 -10 65 -5 28 -11 66 -15 85 -7 44 -8 46 -24 100 -8 25 -14 52 -14 60
-1 18 -15 34 -39 43 -11 4 -21 15 -24 25 -2 9 -15 25 -28 35 -23 16 -24 16
-39 -5z"/>
<path d="M8802 6528 c-14 -19 -19 -39 -38 -163 -3 -16 -7 -43 -10 -60 -3 -16
-6 -41 -8 -55 -2 -14 -5 -25 -6 -25 -1 0 -4 -16 -5 -35 -2 -19 -5 -49 -8 -66
-3 -17 -10 -66 -17 -110 -6 -43 -13 -90 -15 -104 -3 -14 -7 -52 -10 -85 -3
-33 -7 -67 -10 -75 -2 -8 -7 -49 -10 -90 -4 -41 -8 -86 -10 -100 -4 -25 -15
-152 -20 -225 -9 -137 -18 -295 -18 -327 l0 -36 -81 -1 c-68 0 -121 -5 -121
-11 0 -1 -11 -3 -25 -6 -99 -18 -244 -125 -332 -245 -23 -32 -46 -59 -51 -59
-4 0 -6 -4 -2 -9 3 -5 -1 -16 -9 -24 -8 -8 -24 -35 -36 -61 -12 -25 -26 -46
-32 -46 -5 0 -7 -4 -4 -9 3 -4 -4 -28 -16 -52 -21 -44 -93 -257 -103 -304 -3
-14 -8 -37 -11 -52 -3 -16 -7 -39 -9 -53 -2 -14 -5 -25 -6 -25 -1 0 -3 -9 -4
-20 -1 -11 -5 -37 -9 -57 -26 -162 -28 -483 -2 -533 6 -11 9 -23 8 -27 -1 -5
2 -8 8 -8 5 0 10 -7 10 -15 0 -43 198 -187 244 -176 4 1 13 -2 20 -7 6 -5 19
-8 28 -7 10 2 20 0 22 -4 5 -8 125 -6 181 4 56 9 164 45 171 56 3 5 10 7 15 4
5 -4 9 -2 9 3 0 5 12 15 28 21 15 6 44 27 64 47 39 36 104 124 92 124 -3 0 -1
6 5 14 18 22 25 144 11 196 -7 25 -11 46 -11 48 1 1 -5 10 -14 19 -15 14 -19
14 -45 -6 -16 -11 -34 -21 -40 -21 -5 0 -10 -4 -10 -8 0 -4 -12 -15 -27 -24
-16 -9 -37 -25 -48 -35 -40 -36 -145 -104 -200 -129 -70 -32 -132 -37 -182
-13 -86 41 -92 57 -88 225 4 144 7 174 36 289 91 363 305 686 499 753 63 22
65 21 66 -71 2 -149 25 -467 40 -540 2 -12 6 -48 9 -81 3 -32 7 -61 9 -65 3
-3 7 -27 11 -51 3 -25 13 -74 21 -110 15 -61 18 -77 28 -132 2 -13 7 -30 10
-38 3 -8 7 -26 10 -40 12 -67 80 -258 99 -278 57 -61 157 -73 242 -29 54 28
138 104 199 180 39 49 43 76 21 142 -40 118 -92 162 -155 130 -25 -13 -110
-100 -110 -113 -1 -4 -11 -20 -24 -35 l-23 -29 -8 34 c-4 18 -9 42 -11 53 -1
11 -10 52 -18 90 -9 39 -18 88 -21 110 -2 22 -7 51 -9 65 -3 14 -8 54 -11 90
-3 36 -8 97 -12 135 -3 39 -6 205 -6 370 -1 305 3 414 28 790 4 61 9 133 10
160 2 28 6 95 10 150 10 165 10 175 0 175 -6 0 -6 3 0 8 12 8 13 35 14 297 0
223 -4 344 -13 371 -9 25 -87 74 -119 74 -13 0 -29 -6 -35 -12z"/>
<path d="M6828 6488 c-16 -5 -28 -15 -29 -21 0 -7 -2 -21 -4 -32 -2 -11 -6
-49 -9 -85 -9 -103 -18 -185 -31 -280 -2 -19 -7 -57 -10 -85 -3 -27 -8 -61
-10 -75 -3 -14 -7 -43 -10 -65 -3 -22 -7 -51 -9 -65 -11 -61 -39 -238 -42
-265 -1 -16 -5 -41 -8 -55 -2 -14 -7 -47 -11 -73 -4 -27 -8 -58 -11 -70 -2
-12 -6 -39 -9 -62 -3 -22 -10 -65 -15 -95 -15 -92 -21 -133 -26 -185 -10 -94
-12 -110 -14 -110 -1 0 -3 -16 -5 -35 -8 -98 -10 -120 -15 -120 -3 0 -5 -19
-6 -43 0 -23 -4 -89 -9 -147 -17 -195 -11 -663 9 -790 3 -14 9 -56 15 -95 12
-75 17 -103 28 -150 4 -16 7 -34 8 -40 0 -5 7 -30 14 -55 7 -25 14 -52 16 -61
10 -53 35 -87 72 -100 66 -23 169 -17 236 14 71 32 175 133 235 227 23 36 45
70 50 75 4 6 39 65 77 133 39 68 78 132 88 142 9 11 17 22 17 26 0 3 16 28 35
54 l35 47 -28 35 c-40 50 -70 77 -76 71 -3 -4 -6 -2 -6 4 0 6 -17 15 -38 20
-73 19 -152 -32 -226 -147 -16 -25 -29 -47 -29 -50 1 -3 -4 -12 -10 -20 -16
-20 -32 -49 -84 -150 -72 -139 -123 -213 -138 -198 -7 7 -14 105 -19 255 -2
61 -7 116 -11 122 -3 6 -3 11 2 11 4 0 9 87 10 193 1 183 7 323 17 432 3 28 7
82 10 120 3 39 8 86 11 105 9 71 17 136 20 170 3 39 13 126 21 181 2 20 7 54
9 75 3 21 7 53 10 69 2 17 6 48 9 70 3 22 7 54 10 70 8 48 31 214 40 290 14
111 18 141 21 145 1 3 6 36 10 75 4 38 8 72 10 75 2 3 6 34 10 70 4 36 9 74
11 85 2 11 7 45 10 75 3 30 8 69 10 85 10 87 13 151 6 161 -27 41 -176 66
-244 42z"/>
<path d="M5680 5290 c-14 -4 -40 -10 -57 -14 -18 -5 -33 -12 -33 -17 0 -4 -9
-10 -20 -14 -24 -8 -90 -70 -90 -85 0 -6 -4 -8 -10 -5 -5 3 -10 0 -10 -8 0 -8
-7 -20 -16 -28 -20 -17 -12 -62 24 -131 34 -65 68 -92 106 -82 15 3 52 29 83
57 71 66 87 68 113 17 11 -22 18 -40 15 -40 -4 0 0 -12 8 -27 26 -50 62 -147
72 -193 2 -8 4 -15 5 -15 1 0 3 -9 5 -20 1 -11 10 -60 20 -110 19 -95 26 -341
12 -425 -16 -97 -30 -165 -37 -175 -4 -5 -10 -22 -13 -36 -12 -50 -65 -150
-115 -219 -33 -46 -141 -148 -150 -142 -2 2 -8 -1 -11 -6 -7 -10 -123 -77
-131 -76 -6 2 -11 0 -57 -14 -17 -6 -37 -9 -45 -8 -7 2 -31 6 -53 11 -66 13
-146 56 -189 101 -58 60 -64 68 -90 122 -41 82 -52 122 -81 292 -9 48 -9 312
-1 380 15 121 17 137 27 187 6 29 10 55 9 58 0 3 7 19 15 35 8 16 15 32 14 35
-3 16 56 118 91 158 47 53 123 96 164 91 55 -6 106 39 111 96 4 45 -30 102
-73 124 -90 45 -351 -70 -453 -201 -16 -21 -36 -46 -44 -55 -33 -41 -110 -213
-121 -273 -6 -34 -12 -60 -15 -60 -1 0 -3 -13 -5 -30 -1 -16 -7 -59 -12 -95
-10 -65 -8 -363 1 -410 3 -14 8 -43 11 -65 5 -39 10 -65 21 -115 4 -14 8 -36
11 -49 10 -49 75 -206 109 -260 68 -112 150 -195 245 -250 106 -61 151 -74
259 -73 210 1 398 81 534 226 38 40 117 141 117 149 0 2 18 36 39 75 21 39 36
73 33 76 -3 3 1 6 8 6 7 0 11 3 7 6 -3 3 5 36 18 73 27 74 54 186 61 246 2 22
6 58 9 80 6 53 6 313 1 345 -3 14 -7 43 -10 65 -14 98 -30 166 -67 285 -41
130 -170 362 -226 404 -27 20 -107 35 -143 26z"/>
</g>
</svg>
